<?xml version="1.0" encoding="iso-8859-1"?>
<!-- Generator: Adobe Illustrator 19.0.0, SVG Export Plug-In . SVG Version: 6.00 Build 0)  -->
<svg version="1.1" id="Layer_1" xmlns="http://www.w3.org/2000/svg" xmlns:xlink="http://www.w3.org/1999/xlink" x="0px" y="0px"
	 viewBox="0 0 512 512" style="enable-background:new 0 0 512 512;" xml:space="preserve">
<path style="fill:#FFD76E;" d="M446.403,512H65.615c-10.345,0-18.731-8.387-18.731-18.731V140.884c0-4.967,1.973-9.731,5.487-13.244
	L174.509,5.502c3.513-3.513,8.277-5.487,13.244-5.487h258.651c10.345,0,18.731,8.387,18.731,18.731v474.523
	C465.135,503.615,456.748,512,446.403,512z"/>
<g>
	<path style="fill:#FFC339;" d="M446.403,0.015H255.999V512h190.405c10.345,0,18.731-8.387,18.731-18.731V18.746
		C465.135,8.401,456.748,0.015,446.403,0.015z"/>
	<path style="fill:#FFC339;" d="M187.752,159.616H65.615c-16.622,0-25.037-20.183-13.244-31.975L174.509,5.502
		c11.758-11.758,31.975-3.427,31.975,13.244v122.138C206.484,151.229,198.097,159.616,187.752,159.616z"/>
</g>
<path style="fill:#48AEE2;" d="M383.966,184.59H128.052c-10.345,0-18.731,8.387-18.731,18.731v227.51
	c0,10.345,8.387,18.731,18.731,18.731h255.915c10.345,0,18.731-8.387,18.731-18.731v-227.51
	C402.697,192.977,394.311,184.59,383.966,184.59z M365.235,257.347h-90.499v-35.294h90.499V257.347z M237.274,222.053v35.294
	h-90.491v-35.294L237.274,222.053L237.274,222.053z M146.784,294.81h90.491v117.292h-90.491
	C146.784,412.102,146.784,294.81,146.784,294.81z M274.736,412.1V294.808h90.499V412.1H274.736z"/>
<path style="fill:#4390CB;" d="M383.966,184.59H255.999v264.972h127.968c10.345,0,18.731-8.387,18.731-18.731v-227.51
	C402.697,192.977,394.311,184.59,383.966,184.59z M365.235,412.1h-90.499V294.808h90.499V412.1z M365.235,257.347h-90.499v-35.294
	h90.499V257.347z"/>
<g>
</g>
<g>
</g>
<g>
</g>
<g>
</g>
<g>
</g>
<g>
</g>
<g>
</g>
<g>
</g>
<g>
</g>
<g>
</g>
<g>
</g>
<g>
</g>
<g>
</g>
<g>
</g>
<g>
</g>
</svg>
