<?xml version="1.0" encoding="iso-8859-1"?>
<!-- Generator: Adobe Illustrator 19.0.0, SVG Export Plug-In . SVG Version: 6.00 Build 0)  -->
<svg version="1.1" id="Layer_1" xmlns="http://www.w3.org/2000/svg" xmlns:xlink="http://www.w3.org/1999/xlink" x="0px" y="0px"
	 viewBox="0 0 512 512" style="enable-background:new 0 0 512 512;" xml:space="preserve">
<path style="fill:#979CA7;" d="M467,512h-75V60h105c8.284,0,15,6.716,15,15v392C512,491.853,491.853,512,467,512z"/>
<path style="fill:#E6EEFF;" d="M422,467c0-299.259,0,277.711,0-452c0-8.291-6.709-15-15-15H15C6.709,0,0,6.709,0,15v421
	c0,41.353,33.647,76,75,76h392C442.147,512,422,491.853,422,467z"/>
<path style="fill:#DAE2F2;" d="M422,372.052V15c0-8.284-6.716-15-15-15H211v467c0,24.853,20.147,45,45,45h211
	c-24.853,0-45-20.147-45-45c0-26.71,0-47.318,0-61.591C422,379.702,422,371.543,422,372.052z"/>
<path style="fill:#C4CAD9;" d="M347,151H75c-8.291,0-15-6.709-15-15V75c0-8.291,6.709-15,15-15h272c8.291,0,15,6.709,15,15v61
	C362,144.291,355.291,151,347,151z"/>
<g>
	<path style="fill:#979CA7;" d="M347,211h-91c-8.291,0-15-6.709-15-15s6.709-15,15-15h91c8.291,0,15,6.709,15,15
		S355.291,211,347,211z"/>
	<path style="fill:#979CA7;" d="M347,271h-91c-8.291,0-15-6.709-15-15s6.709-15,15-15h91c8.291,0,15,6.709,15,15
		C362,264.291,355.291,271,347,271z"/>
	<path style="fill:#979CA7;" d="M347,331h-91c-8.291,0-15-6.709-15-15s6.709-15,15-15h91c8.291,0,15,6.709,15,15
		S355.291,331,347,331z"/>
</g>
<path style="fill:#A1A7B3;" d="M196,331H75c-8.291,0-15-6.709-15-15V196c0-8.291,6.709-15,15-15h121c8.291,0,15,6.709,15,15v120
	C211,324.291,204.291,331,196,331z"/>
<path style="fill:#B8BFCC;" d="M347,60H211v91h136c8.291,0,15-6.709,15-15V75C362,66.709,355.291,60,347,60z"/>
<path style="fill:#A1A7B3;" d="M347,391H75c-8.291,0-15-6.709-15-15s6.709-15,15-15h272c8.291,0,15,6.709,15,15S355.291,391,347,391
	z"/>
<path style="fill:#979CA7;" d="M347,361H211v30h136c8.291,0,15-6.709,15-15S355.291,361,347,361z"/>
<path style="fill:#A1A7B3;" d="M256,451H75c-8.291,0-15-6.709-15-15s6.709-15,15-15h181c8.291,0,15,6.709,15,15S264.291,451,256,451
	z"/>
<path style="fill:#979CA7;" d="M256,421h-45v30h45c8.291,0,15-6.709,15-15S264.291,421,256,421z"/>
<g>
</g>
<g>
</g>
<g>
</g>
<g>
</g>
<g>
</g>
<g>
</g>
<g>
</g>
<g>
</g>
<g>
</g>
<g>
</g>
<g>
</g>
<g>
</g>
<g>
</g>
<g>
</g>
<g>
</g>
</svg>
