<svg version="1.1" id="Layer_2_1_" xmlns="http://www.w3.org/2000/svg" x="0" y="0" viewBox="0 0 100 100" xml:space="preserve"><circle cx="49.9" cy="50" r="50" fill="#2ce5e5"/><path d="M47.7 53.3l17.6-2.6L53 47.2l-17.6 2.6zM29.1 36.1c-.4 1.4.4 2.8 1.8 3.2l37.2 10.4c1.4.4 2.8-.4 3.2-1.8.4-1.4-.4-2.8-1.8-3.2L32.3 34.3c-1.4-.4-2.8.4-3.2 1.8zm0 16.4c-.4 1.4.4 2.8 1.8 3.2l37.2 10.4c1.4.4 2.8-.4 3.2-1.8.4-1.4-.4-2.8-1.8-3.2L32.3 50.7c-1.4-.4-2.8.4-3.2 1.8z" fill="#fff"/><path d="M44.3 61.3H31.6c-1.4 0-2.6 1.2-2.6 2.6 0 1.4 1.2 2.6 2.6 2.6H63l-18.7-5.2zm11.6-22.2h12.9c1.4 0 2.6-1.2 2.6-2.6 0-1.4-1.2-2.6-2.6-2.6H37.3l18.6 5.2z" opacity=".65" fill="#fff"/></svg>